# xmcd CD database file
#
# Track frame offsets:
#	150
#	17192
#	28915
#	41042
#	58447
#	70755
#	83345
#	94095
#	105357
#	119265
#	131455
#
# Disc length: 1924 seconds
#
# Revision: 2
# Processed by: cddbd v1.5.2PL0 Copyright (c) Steve Scherf et al.
# Submitted via: CDex 1.51
#
DISCID=8d07820b
DTITLE=Hank William Jr - The Hits
DYEAR=1997
DGENRE=Country
TTITLE0=Satin Sheets
TTITLE1=I've Got A Right To Cry
TTITLE2=Cajun Baby 
TTITLE3=All For The Love Of Sunshine
TTITLE4=Eleven Roses
TTITLE5=Stoned At The Jukebox
TTITLE6=I'll Think Of Something
TTITLE7=Honky Tonkin'
TTITLE8=The Kind Of woman I Got
TTITLE9=Country Love
TTITLE10=Free Born Man
EXTD=YEAR: 1997
EXTT0=
EXTT1=
EXTT2=
EXTT3=
EXTT4=
EXTT5=
EXTT6=
EXTT7=
EXTT8=
EXTT9=
EXTT10=
PLAYORDER=
